<svg xmlns="http://www.w3.org/2000/svg" aria-labelledby="loreai-dark-title loreai-dark-desc" viewBox="0 0 100 100"><title>Lore.AI</title><desc>Lore.AI lily mark — square logo for use on dark/ink backgrounds.</desc><g fill="#f7f2e8"><path d="M356 54.5c5.255 2.886 9.612 6.117 11.426 12.006.401 6.218-.506 8.489-4.583 13.401L359 83l-1.5 1.5c-6.711.56-10.431.834-16.407-2.343-4.095-4.842-4.593-7.846-4.593-14.157 3.582-9.806 8.618-15.42 19.5-13.5m-11.437 6.093C341 63.5 341 63.5 339.407 67.813c.093 4.687.093 4.687 2.436 9C345.5 80 345.5 80 350.093 80.75c4.407-.75 4.407-.75 7.22-2.437 2.52-4.199 2.373-7.01 1.687-11.813-4.155-5.301-7.671-8.646-14.437-5.907M521 101c5.162 3.734 7.131 6.687 9.75 12.468.954 7.033-.237 11.433-3.75 17.532-5.076 5.822-10.202 7.224-17.678 7.746-5.44-.404-8.353-2.655-12.322-6.246-4.45-5.341-5.214-9.861-4.933-16.611.871-5.806 3.618-9.239 7.933-13.014 6.921-4.326 13.333-3.816 21-1.875m-22.5 57c-5.781 0-9.757-2.361-14.812-4.875-10.287-4.95-20.586-8.847-31.688-11.625l-3.217-.81c-10.577-2.41-20.84-2.654-31.658-2.565-1.798.01-3.599.023-5.451.035-63.219.768-118.553 34.416-162.174 78.34l-1.5 3h-3l-1.224 2.695c-1.776 3.305-3.602 5.48-6.183 8.18-46.185 52.03-60.933 119.318-57.093 187.125 3.248 37.698 18.123 76.817 41.548 106.758C224 527 224 527 224 530l4.5 1.5c2.367 2.403 2.367 2.403 4.875 5.438 5.087 6.009 10.483 11.575 16.125 17.062l-3 1.5c-42.561-28.267-69.348-68.138-79.875-118.218-6.241-31.921-4.263-63.031 1.875-94.782.322-1.713.647-3.426.978-5.192C172.253 324.01 176.781 311.501 182 299l1.394-3.34c10.702-25.13 25.093-49.547 44.245-69.193C230 224 230 224 231.5 221h3l.962-2.431c2.821-4.938 6.652-8.691 10.663-12.662.429-.428.429-.428 2.604-2.589C257.871 194.4 267.743 186.588 278 179l3.92-2.935c59.677-43.27 153.676-70.238 216.58-18.065m-276-19.5c5.157 2.718 5.157 2.718 9 6l2.625 1.875c4.315 6.042 4.935 12.883 4.688 20.063-1.874 7.225-4.84 12.013-10.595 16.78-6.924 2.925-13.702 4.54-21.046 2.24-5.777-2.738-10.694-5.865-14.672-10.958-2.565-8.161-2.596-16.44.282-24.468 7.491-11.11 17.055-12.992 29.718-11.532m-90 70.5c4.313-.187 4.313-.187 9 0l3 3c-.187 3.75-.187 3.75-1.5 7.5-3.093 1.968-3.093 1.968-6 3l-6-4.5zm490.348.504c3.153.996 3.153.996 6.34 4.933 1.542 5.952 1.485 9.65-.187 15.563-2.708 3.357-4.649 4.252-8.855 5.022-3.265.237-5.946.187-9.145-.522-3.563-3.288-5.32-6.092-7.407-10.406-.149-4.884 1.91-7.995 4.407-12.094 5.614-3.744 8.368-3.404 14.847-2.496"/><path d="M441.5 224c7.212 7.143 10.693 12.514 10.968 22.875-.11 9.286-2.05 14.472-8.555 21.322-6.437 5.844-12.45 7.982-20.976 8.771-9.345-.805-16.126-2.913-22.5-10.03-6.1-7.942-8.092-14.862-6.937-24.938 1.755-8.502 5.295-13.93 12.176-19.214 11.154-7.057 25.031-5.982 35.824 1.214m-124.031 61.125c6.432 3.541 9.93 7.913 13.407 14.343 2.655 9.519 1.743 16.768-2.954 25.29-3.634 5.185-8.242 8.903-13.921 11.742-11.05 1.015-21.52 1.812-30.675-5.185-6.576-6.543-9.411-13.671-10.073-22.91.576-7.95 4.788-13.63 9.716-19.623 11.199-9.115 21.73-9.472 34.5-3.657m-238.219-.469c5.398.867 8.435 2.043 12.75 5.343 2.325 4.652 1.935 8.369 1.5 13.5-2.694 4.131-4.58 6.79-9 9-6.204.848-8.64.22-14.062-3.093C66.5 305 66.5 305 65.468 299.844c1.632-8.454 4.67-13.724 13.782-15.188m601.734 47.714c24.632 23.147 36.869 55.219 38.385 88.616 1.218 48.449-15.666 94.079-43.869 133.014-1.144 1.592-2.29 3.183-3.47 4.823-15.84 21.358-35.354 40.624-56.53 56.677l-3.943 3.164C574.307 647.882 530.279 665.953 485 678.5l-4.963 1.401c-25.61 6.563-52.701 8.198-79.037 9.1-.399.83-.796 1.663-1.207 2.52-6.56 12.731-15.114 24.049-24.293 34.98l-2.047 2.456C354.215 752.005 332.363 775.92 305 789.5l-3-1.5 4.5-1.5v-3c2.256-2.221 2.256-2.221 5.343-4.782 50.571-43.207 84.351-112.767 90.383-178.677 2.854-42.007-3.978-81.14-15.57-121.323l-.843-2.937c-2.016-6.748-4.518-13.239-7.176-19.76a989 989 0 0 1-4.977-12.529c-6.912-17.548-14.093-34.87-22.22-51.898l-1.833-3.9-1.638-3.419L347 381.5l1.5-3c30.845 47.71 60.465 104.844 68.297 161.795C417.5 545 417.5 545 419 546.5c12.34-64.858 8.099-135.45-.052-200.563-.899-7.193-1.722-14.168-1.448-21.437 2.895 4.994 3.732 9.494 4.5 15.188.837 5.85 1.703 11.65 2.906 17.437 3.997 19.349 7.048 38.781 9.282 58.406.127 1.113.256 2.226.388 3.372 2.622 23.022 3.656 45.927 3.924 69.097l.119 4.313c.234 12.502-1.074 24.73-2.517 37.128-.414 3.552-.81 7.107-1.206 10.66-3.477 30.87-3.477 30.87-7.083 44.555-1.14 4.64-1.427 8.137-1.313 12.844l1.229-2.96C441.937 560.4 456.464 526.326 474.5 494l2.25-4.038c4.722-8.142 10-15.924 15.28-23.712l2.165-3.217 2.072-3.017c.61-.895 1.22-1.79 1.85-2.71C500 455 500 455 504.5 452c-1.534 5.83-3.813 10.445-7.038 15.468-5.886 9.695-10.138 20.009-14.431 30.47l-2.573 6.204c-8.57 20.748-16.41 41.746-24.028 62.86-11.078 30.689-22.515 61.436-37.43 90.498-1.914 3.809-3.816 7.623-5.72 11.438q-1.371 2.747-2.747 5.496L408.5 678.5c67.994-6.142 135.974-26.703 190.5-69l2.658-2.049c17.189-13.27 17.189-13.27 21.014-17.187 1.828-1.764 1.828-1.764 4.828-1.764.34-.835.681-1.67 1.03-2.532 2.52-4.438 5.782-7.46 9.47-10.968.836-.897 1.67-1.794 2.53-2.72 1.97-1.78 1.97-1.78 4.97-1.78l1.154-2.566c2.086-3.88 4.566-6.98 7.377-10.371 35.664-44.13 51.645-92.361 48.47-149.063-3.166-27.355-16.562-54.517-38.18-71.971A192 192 0 0 0 653 329c-.469-.292-.469-.292-2.831-1.77-31.368-17.554-74.532-14.452-108.141-5.754-5.039 1.43-10.032 2.96-15.029 4.524q-4.775 1.336-9.562 2.625c-1.343.363-2.684.728-4.067 1.101-.948.255-1.894.512-2.87.774 4.862-5.295 10.378-7.552 16.874-10.407l3.651-1.605c48.167-20.62 108.501-21.174 149.958 13.881"/><path d="M553.344 377.094c7.498 4.225 12.907 9.661 15.657 17.907.81 9.57-.531 16.024-6 24-5.871 6.415-10.578 8.62-19.044 9.105-9.111-.278-16.373-2.522-22.956-9.105-6.107-8.513-5.787-16.877-4.5-27 2.608-7.3 7.26-10.785 14.06-14.157 8.171-3.138 14.353-3.264 22.783-.75M59 389c2.754 4.131 3.94 7.413 5.243 12.134C72.136 429.462 88.754 453.312 107 476l3.07 3.913C121.69 494.5 134.7 507.54 149 519.5l3.457 2.953c23.966 20.105 49.963 37.195 77.338 52.271a546 546 0 0 1 8.415 4.776c14.315 8.074 29.27 14.451 44.477 20.625l3.054 1.246c19.74 8.023 39.584 15.173 60.416 19.847l4.245.983q5.045 1.163 10.098 2.299v1.5c-26.012 1.428-51.733-4.626-76.5-12l-4.05-1.174c-33.847-9.96-67.665-24.722-96.45-45.326q-2.552-1.74-5.109-3.468C149.237 544.07 123.475 519.401 102.5 491l-2.877-3.808C83.593 465.254 70.201 439.384 63.5 413l-1.26-4.7C59 395.909 59 395.909 59 389m228 97.5c2.718 1.782 2.718 1.782 4.5 4.5.657 3.75.657 3.75 0 7.5-2.532 2.813-2.532 2.813-6 4.5-5.055-.361-6.882-.882-10.5-4.5-.468-4.5-.468-4.5 0-9 4.85-3.233 6.378-3.704 12-3m319.5 72c0 6.138-3.143 8.674-7.125 12.938l-2.247 2.418c-7.608 7.967-15.981 14.508-25.128 20.644l-4.085 2.742C538.449 615.644 505.66 623.179 471.5 626c4.125-2.75 5.877-3.516 10.512-4.407 41.868-8.649 90.024-27.24 119.637-59.678C603.5 560 603.5 560 606.5 558.5m-442.5 39c8.813 5.438 8.813 5.438 10.5 10.5q3.747 1.508 7.5 3c4.182 2.707 8.169 5.68 12.188 8.625 9.62 6.913 19.224 13.032 29.812 18.375l4.035 2.087c10.719 5.48 21.566 10.212 32.808 14.506l5.123 1.964c13.369 5.023 26.77 9.024 40.67 12.256 2.466.591 4.908 1.272 7.346 1.97 16.08 4.585 32.95 5.842 49.518 7.717-1.22 3.657-1.22 3.657-3 7.5-5.61 1.87-10.202 1.111-15.937.375l-3.438-.432c-3.545-.46-7.085-.945-10.625-1.443l-3.183-.446c-58.966-8.572-113.067-33.574-155.535-75.397l-2.376-2.333C164 600.87 164 600.87 164 597.5m469.688 45.094C638 644 638 644 641 648.5c.563 4.5.563 4.5 0 9-3.176 3.528-5.16 4.377-9.845 5.06-3.655-.56-3.655-.56-6.375-2.25-2.647-4.181-2.473-6.962-1.78-11.81 3.309-4.965 4.659-6.027 10.688-5.907M555.5 689c4.313-.187 4.313-.187 9 0l3 3c-.562 4.688-.562 4.688-1.5 9-3.468 1.032-3.468 1.032-7.5 1.5-2.812-1.593-2.812-1.593-4.5-4.5.468-4.782.468-4.782 1.5-9M509 714.5l7.5 1.5v6l-6 3-3-3c.563-3.937.563-3.937 1.5-7.5"/></g><g fill="#bff7c9"><circle cx="22" cy="22" r="4"/><circle cx="18" cy="50" r="4"/><circle cx="26" cy="78" r="4"/></g></svg>